<?xml version="1.0" encoding="UTF-8" standalone="no"?>
<!DOCTYPE svg PUBLIC "-//W3C//DTD SVG 1.1//EN"
 "http://www.w3.org/Graphics/SVG/1.1/DTD/svg11.dtd">
<!-- Generated by graphviz version 2.38.0 (20140413.2041)
 -->
<!-- Title: controllers_diagram Pages: 1 -->
<svg width="530pt" height="509pt"
 viewBox="0.00 0.00 529.50 509.00" xmlns="http://www.w3.org/2000/svg" xmlns:xlink="http://www.w3.org/1999/xlink">
<g id="graph0" class="graph" transform="scale(1 1) rotate(0) translate(213.5 309.5)">
<title>controllers_diagram</title>
<polygon fill="none" stroke="none" points="-213.5,199.5 -213.5,-309.5 316,-309.5 316,199.5 -213.5,199.5"/>
<!-- _diagram_info -->
<g id="node1" class="node"><title>_diagram_info</title>
<text text-anchor="start" x="92" y="-147.6" font-family="Times,serif" font-size="13.00">Controllers diagram</text>
<text text-anchor="start" x="92" y="-133.6" font-family="Times,serif" font-size="13.00">Date: Nov 22 2015 &#45; 13:22</text>
<text text-anchor="start" x="92" y="-119.6" font-family="Times,serif" font-size="13.00">Migration version: 20151109102306</text>
<text text-anchor="start" x="92" y="-105.6" font-family="Times,serif" font-size="13.00">Generated by RailRoady 1.4.1</text>
<text text-anchor="start" x="92" y="-91.6" font-family="Times,serif" font-size="13.00">http://railroady.prestonlee.com</text>
</g>
<!-- AnswersController -->
<g id="node2" class="node"><title>AnswersController</title>
<path fill="none" stroke="black" d="M-183.5,195C-183.5,195 -88.5,195 -88.5,195 -82.5,195 -76.5,189 -76.5,183 -76.5,183 -76.5,113 -76.5,113 -76.5,107 -82.5,101 -88.5,101 -88.5,101 -183.5,101 -183.5,101 -189.5,101 -195.5,107 -195.5,113 -195.5,113 -195.5,183 -195.5,183 -195.5,189 -189.5,195 -183.5,195"/>
<text text-anchor="middle" x="-136" y="116.2" font-family="Times,serif" font-size="14.00">AnswersController</text>
<polyline fill="none" stroke="black" points="-195.5,124 -76.5,124 "/>
<polyline fill="none" stroke="black" points="-195.5,148 -76.5,148 "/>
<polyline fill="none" stroke="black" points="-195.5,172 -76.5,172 "/>
<text text-anchor="start" x="-187.5" y="187.2" font-family="Times,serif" font-size="14.00">_layout</text>
</g>
<!-- IndexController -->
<g id="node3" class="node"><title>IndexController</title>
<path fill="none" stroke="black" d="M-71.5,-210.5C-71.5,-210.5 7.5,-210.5 7.5,-210.5 13.5,-210.5 19.5,-216.5 19.5,-222.5 19.5,-222.5 19.5,-291.5 19.5,-291.5 19.5,-297.5 13.5,-303.5 7.5,-303.5 7.5,-303.5 -71.5,-303.5 -71.5,-303.5 -77.5,-303.5 -83.5,-297.5 -83.5,-291.5 -83.5,-291.5 -83.5,-222.5 -83.5,-222.5 -83.5,-216.5 -77.5,-210.5 -71.5,-210.5"/>
<text text-anchor="middle" x="-32" y="-288.3" font-family="Times,serif" font-size="14.00">IndexController</text>
<polyline fill="none" stroke="black" points="-83.5,-280.5 19.5,-280.5 "/>
<text text-anchor="start" x="-75.5" y="-265.3" font-family="Times,serif" font-size="14.00">index</text>
<polyline fill="none" stroke="black" points="-83.5,-257.5 19.5,-257.5 "/>
<polyline fill="none" stroke="black" points="-83.5,-233.5 19.5,-233.5 "/>
<text text-anchor="start" x="-75.5" y="-218.3" font-family="Times,serif" font-size="14.00">_layout</text>
</g>
<!-- ApplicationController -->
<g id="node4" class="node"><title>ApplicationController</title>
<path fill="none" stroke="black" d="M-72,-85C-72,-85 40,-85 40,-85 46,-85 52,-91 52,-97 52,-97 52,-167 52,-167 52,-173 46,-179 40,-179 40,-179 -72,-179 -72,-179 -78,-179 -84,-173 -84,-167 -84,-167 -84,-97 -84,-97 -84,-91 -78,-85 -72,-85"/>
<text text-anchor="middle" x="-16" y="-163.8" font-family="Times,serif" font-size="14.00">ApplicationController</text>
<polyline fill="none" stroke="black" points="-84,-156 52,-156 "/>
<polyline fill="none" stroke="black" points="-84,-132 52,-132 "/>
<polyline fill="none" stroke="black" points="-84,-108 52,-108 "/>
<text text-anchor="start" x="-76" y="-92.8" font-family="Times,serif" font-size="14.00">_layout</text>
</g>
<!-- UsersController -->
<g id="node5" class="node"><title>UsersController</title>
<path fill="none" stroke="black" d="M-197.5,-211C-197.5,-211 -118.5,-211 -118.5,-211 -112.5,-211 -106.5,-217 -106.5,-223 -106.5,-223 -106.5,-293 -106.5,-293 -106.5,-299 -112.5,-305 -118.5,-305 -118.5,-305 -197.5,-305 -197.5,-305 -203.5,-305 -209.5,-299 -209.5,-293 -209.5,-293 -209.5,-223 -209.5,-223 -209.5,-217 -203.5,-211 -197.5,-211"/>
<text text-anchor="middle" x="-158" y="-289.8" font-family="Times,serif" font-size="14.00">UsersController</text>
<polyline fill="none" stroke="black" points="-209.5,-282 -106.5,-282 "/>
<polyline fill="none" stroke="black" points="-209.5,-258 -106.5,-258 "/>
<polyline fill="none" stroke="black" points="-209.5,-234 -106.5,-234 "/>
<text text-anchor="start" x="-201.5" y="-218.8" font-family="Times,serif" font-size="14.00">_layout</text>
</g>
<!-- ContributesController -->
<g id="node6" class="node"><title>ContributesController</title>
<path fill="none" stroke="black" d="M166.5,153.5C166.5,153.5 277.5,153.5 277.5,153.5 283.5,153.5 289.5,147.5 289.5,141.5 289.5,141.5 289.5,72.5 289.5,72.5 289.5,66.5 283.5,60.5 277.5,60.5 277.5,60.5 166.5,60.5 166.5,60.5 160.5,60.5 154.5,66.5 154.5,72.5 154.5,72.5 154.5,141.5 154.5,141.5 154.5,147.5 160.5,153.5 166.5,153.5"/>
<text text-anchor="middle" x="222" y="75.7" font-family="Times,serif" font-size="14.00">ContributesController</text>
<polyline fill="none" stroke="black" points="154.5,83.5 289.5,83.5 "/>
<text text-anchor="start" x="162.5" y="98.7" font-family="Times,serif" font-size="14.00">index</text>
<polyline fill="none" stroke="black" points="154.5,106.5 289.5,106.5 "/>
<polyline fill="none" stroke="black" points="154.5,130.5 289.5,130.5 "/>
<text text-anchor="start" x="162.5" y="145.7" font-family="Times,serif" font-size="14.00">_layout</text>
</g>
<!-- ContactsController -->
<g id="node7" class="node"><title>ContactsController</title>
<path fill="none" stroke="black" d="M54.5,-210.5C54.5,-210.5 149.5,-210.5 149.5,-210.5 155.5,-210.5 161.5,-216.5 161.5,-222.5 161.5,-222.5 161.5,-291.5 161.5,-291.5 161.5,-297.5 155.5,-303.5 149.5,-303.5 149.5,-303.5 54.5,-303.5 54.5,-303.5 48.5,-303.5 42.5,-297.5 42.5,-291.5 42.5,-291.5 42.5,-222.5 42.5,-222.5 42.5,-216.5 48.5,-210.5 54.5,-210.5"/>
<text text-anchor="middle" x="102" y="-288.3" font-family="Times,serif" font-size="14.00">ContactsController</text>
<polyline fill="none" stroke="black" points="42.5,-280.5 161.5,-280.5 "/>
<text text-anchor="start" x="50.5" y="-265.3" font-family="Times,serif" font-size="14.00">index</text>
<polyline fill="none" stroke="black" points="42.5,-257.5 161.5,-257.5 "/>
<polyline fill="none" stroke="black" points="42.5,-233.5 161.5,-233.5 "/>
<text text-anchor="start" x="50.5" y="-218.3" font-family="Times,serif" font-size="14.00">_layout</text>
</g>
<!-- QuestionsController -->
<g id="node8" class="node"><title>QuestionsController</title>
<path fill="none" stroke="black" d="M12,195C12,195 114,195 114,195 120,195 126,189 126,183 126,183 126,113 126,113 126,107 120,101 114,101 114,101 12,101 12,101 6,101 0,107 0,113 0,113 0,183 0,183 0,189 6,195 12,195"/>
<text text-anchor="middle" x="63" y="116.2" font-family="Times,serif" font-size="14.00">QuestionsController</text>
<polyline fill="none" stroke="black" points="0,124 126,124 "/>
<polyline fill="none" stroke="black" points="0,148 126,148 "/>
<polyline fill="none" stroke="black" points="0,172 126,172 "/>
<text text-anchor="start" x="8" y="187.2" font-family="Times,serif" font-size="14.00">_layout</text>
</g>
<!-- SurveysController -->
<g id="node9" class="node"><title>SurveysController</title>
<path fill="none" stroke="black" d="M208,-197C208,-197 300,-197 300,-197 306,-197 312,-203 312,-209 312,-209 312,-293 312,-293 312,-299 306,-305 300,-305 300,-305 208,-305 208,-305 202,-305 196,-299 196,-293 196,-293 196,-209 196,-209 196,-203 202,-197 208,-197"/>
<text text-anchor="middle" x="254" y="-289.8" font-family="Times,serif" font-size="14.00">SurveysController</text>
<polyline fill="none" stroke="black" points="196,-282 312,-282 "/>
<text text-anchor="start" x="204" y="-266.8" font-family="Times,serif" font-size="14.00">index</text>
<text text-anchor="start" x="204" y="-251.8" font-family="Times,serif" font-size="14.00">summary</text>
<polyline fill="none" stroke="black" points="196,-244 312,-244 "/>
<polyline fill="none" stroke="black" points="196,-220 312,-220 "/>
<text text-anchor="start" x="204" y="-204.8" font-family="Times,serif" font-size="14.00">_layout</text>
</g>
<!-- TakeSurveysController -->
<g id="node10" class="node"><title>TakeSurveysController</title>
<path fill="none" stroke="black" d="M-114,69.5C-114,69.5 106,69.5 106,69.5 112,69.5 118,63.5 118,57.5 118,57.5 118,-41.5 118,-41.5 118,-47.5 112,-53.5 106,-53.5 106,-53.5 -114,-53.5 -114,-53.5 -120,-53.5 -126,-47.5 -126,-41.5 -126,-41.5 -126,57.5 -126,57.5 -126,63.5 -120,69.5 -114,69.5"/>
<text text-anchor="middle" x="-4" y="-38.3" font-family="Times,serif" font-size="14.00">TakeSurveysController</text>
<polyline fill="none" stroke="black" points="-126,-30.5 118,-30.5 "/>
<text text-anchor="start" x="-118" y="-15.3" font-family="Times,serif" font-size="14.00">get_next_random_situation_and_question</text>
<text text-anchor="start" x="-118" y="-0.3" font-family="Times,serif" font-size="14.00">show</text>
<text text-anchor="start" x="-118" y="14.7" font-family="Times,serif" font-size="14.00">update</text>
<polyline fill="none" stroke="black" points="-126,22.5 118,22.5 "/>
<polyline fill="none" stroke="black" points="-126,46.5 118,46.5 "/>
<text text-anchor="start" x="-118" y="61.7" font-family="Times,serif" font-size="14.00">_layout</text>
</g>
</g>
</svg>
