<?xml version="1.0" encoding="UTF-8" standalone="no"?>
<!DOCTYPE svg PUBLIC "-//W3C//DTD SVG 1.1//EN"
 "http://www.w3.org/Graphics/SVG/1.1/DTD/svg11.dtd">
<!-- Generated by graphviz version 2.38.0 (20140413.2041)
 -->
<!-- Title: models_diagram Pages: 1 -->
<svg width="1525pt" height="589pt"
 viewBox="0.00 0.00 1525.00 589.00" xmlns="http://www.w3.org/2000/svg" xmlns:xlink="http://www.w3.org/1999/xlink">
<g id="graph0" class="graph" transform="scale(1 1) rotate(0) translate(4 585)">
<title>models_diagram</title>
<polygon fill="none" stroke="none" points="-4,4 -4,-585 1521,-585 1521,4 -4,4"/>
<!-- _diagram_info -->
<g id="node1" class="node"><title>_diagram_info</title>
<text text-anchor="start" x="8" y="-537.1" font-family="Times,serif" font-size="13.00">Models diagram</text>
<text text-anchor="start" x="8" y="-523.1" font-family="Times,serif" font-size="13.00">Date: Nov 22 2015 &#45; 13:22</text>
<text text-anchor="start" x="8" y="-509.1" font-family="Times,serif" font-size="13.00">Migration version: 20151109102306</text>
<text text-anchor="start" x="8" y="-495.1" font-family="Times,serif" font-size="13.00">Generated by RailRoady 1.4.1</text>
<text text-anchor="start" x="8" y="-481.1" font-family="Times,serif" font-size="13.00">http://railroady.prestonlee.com</text>
</g>
<!-- AnsweredQuestion -->
<g id="node2" class="node"><title>AnsweredQuestion</title>
<path fill="none" stroke="black" d="M222,-286.5C222,-286.5 392,-286.5 392,-286.5 398,-286.5 404,-292.5 404,-298.5 404,-298.5 404,-395.5 404,-395.5 404,-401.5 398,-407.5 392,-407.5 392,-407.5 222,-407.5 222,-407.5 216,-407.5 210,-401.5 210,-395.5 210,-395.5 210,-298.5 210,-298.5 210,-292.5 216,-286.5 222,-286.5"/>
<text text-anchor="middle" x="307" y="-392.3" font-family="Times,serif" font-size="14.00">AnsweredQuestion</text>
<polyline fill="none" stroke="black" points="210,-384.5 404,-384.5 "/>
<text text-anchor="start" x="218" y="-369.3" font-family="Times,serif" font-size="14.00">id :INTEGER</text>
<text text-anchor="start" x="218" y="-354.3" font-family="Times,serif" font-size="14.00">question_id :integer</text>
<text text-anchor="start" x="218" y="-339.3" font-family="Times,serif" font-size="14.00">answer_id :integer</text>
<text text-anchor="start" x="218" y="-324.3" font-family="Times,serif" font-size="14.00">created_at :datetime</text>
<text text-anchor="start" x="218" y="-309.3" font-family="Times,serif" font-size="14.00">updated_at :datetime</text>
<text text-anchor="start" x="218" y="-294.3" font-family="Times,serif" font-size="14.00">user_answers_survey_id :integer</text>
</g>
<!-- UniversalAnswer -->
<g id="node3" class="node"><title>UniversalAnswer</title>
<path fill="none" stroke="black" d="M434.5,-286.5C434.5,-286.5 541.5,-286.5 541.5,-286.5 547.5,-286.5 553.5,-292.5 553.5,-298.5 553.5,-298.5 553.5,-395.5 553.5,-395.5 553.5,-401.5 547.5,-407.5 541.5,-407.5 541.5,-407.5 434.5,-407.5 434.5,-407.5 428.5,-407.5 422.5,-401.5 422.5,-395.5 422.5,-395.5 422.5,-298.5 422.5,-298.5 422.5,-292.5 428.5,-286.5 434.5,-286.5"/>
<text text-anchor="middle" x="488" y="-392.3" font-family="Times,serif" font-size="14.00">UniversalAnswer</text>
<polyline fill="none" stroke="black" points="422.5,-384.5 553.5,-384.5 "/>
<text text-anchor="start" x="430.5" y="-369.3" font-family="Times,serif" font-size="14.00">id :INTEGER</text>
<text text-anchor="start" x="430.5" y="-354.3" font-family="Times,serif" font-size="14.00">created_at :datetime</text>
<text text-anchor="start" x="430.5" y="-339.3" font-family="Times,serif" font-size="14.00">updated_at :datetime</text>
<text text-anchor="start" x="430.5" y="-324.3" font-family="Times,serif" font-size="14.00">text :varchar(255)</text>
<text text-anchor="start" x="430.5" y="-309.3" font-family="Times,serif" font-size="14.00">question_id :integer</text>
<text text-anchor="start" x="430.5" y="-294.3" font-family="Times,serif" font-size="14.00">type :varchar(255)</text>
</g>
<!-- QuestionHasAnswer -->
<g id="node5" class="node"><title>QuestionHasAnswer</title>
<path fill="none" stroke="black" d="M583.5,-0.5C583.5,-0.5 690.5,-0.5 690.5,-0.5 696.5,-0.5 702.5,-6.5 702.5,-12.5 702.5,-12.5 702.5,-94.5 702.5,-94.5 702.5,-100.5 696.5,-106.5 690.5,-106.5 690.5,-106.5 583.5,-106.5 583.5,-106.5 577.5,-106.5 571.5,-100.5 571.5,-94.5 571.5,-94.5 571.5,-12.5 571.5,-12.5 571.5,-6.5 577.5,-0.5 583.5,-0.5"/>
<text text-anchor="middle" x="637" y="-91.3" font-family="Times,serif" font-size="14.00">QuestionHasAnswer</text>
<polyline fill="none" stroke="black" points="571.5,-83.5 702.5,-83.5 "/>
<text text-anchor="start" x="579.5" y="-68.3" font-family="Times,serif" font-size="14.00">id :INTEGER</text>
<text text-anchor="start" x="579.5" y="-53.3" font-family="Times,serif" font-size="14.00">created_at :datetime</text>
<text text-anchor="start" x="579.5" y="-38.3" font-family="Times,serif" font-size="14.00">updated_at :datetime</text>
<text text-anchor="start" x="579.5" y="-23.3" font-family="Times,serif" font-size="14.00">question_id :integer</text>
<text text-anchor="start" x="579.5" y="-8.3" font-family="Times,serif" font-size="14.00">answer_id :integer</text>
</g>
<!-- UniversalAnswer&#45;&gt;QuestionHasAnswer -->
<g id="edge1" class="edge"><title>UniversalAnswer&#45;&gt;QuestionHasAnswer</title>
<path fill="none" stroke="#e77fb5" d="M506.028,-278.509C518.501,-237.694 537.305,-185.508 562,-143 567.634,-133.302 574.365,-123.636 581.451,-114.446"/>
<ellipse fill="none" stroke="#e77fb5" cx="504.849" cy="-282.424" rx="4.00001" ry="4.00001"/>
<polygon fill="#e77fb5" stroke="#e77fb5" points="581.536,-114.339 591.275,-109.301 584.643,-110.422 587.75,-106.504 587.75,-106.504 587.75,-106.504 584.643,-110.422 584.224,-103.708 581.536,-114.339 581.536,-114.339"/>
</g>
<!-- Question -->
<g id="node13" class="node"><title>Question</title>
<path fill="none" stroke="black" d="M583.5,-143.5C583.5,-143.5 690.5,-143.5 690.5,-143.5 696.5,-143.5 702.5,-149.5 702.5,-155.5 702.5,-155.5 702.5,-237.5 702.5,-237.5 702.5,-243.5 696.5,-249.5 690.5,-249.5 690.5,-249.5 583.5,-249.5 583.5,-249.5 577.5,-249.5 571.5,-243.5 571.5,-237.5 571.5,-237.5 571.5,-155.5 571.5,-155.5 571.5,-149.5 577.5,-143.5 583.5,-143.5"/>
<text text-anchor="middle" x="637" y="-234.3" font-family="Times,serif" font-size="14.00">Question</text>
<polyline fill="none" stroke="black" points="571.5,-226.5 702.5,-226.5 "/>
<text text-anchor="start" x="579.5" y="-211.3" font-family="Times,serif" font-size="14.00">id :INTEGER</text>
<text text-anchor="start" x="579.5" y="-196.3" font-family="Times,serif" font-size="14.00">created_at :datetime</text>
<text text-anchor="start" x="579.5" y="-181.3" font-family="Times,serif" font-size="14.00">updated_at :datetime</text>
<text text-anchor="start" x="579.5" y="-166.3" font-family="Times,serif" font-size="14.00">text :varchar(255)</text>
<text text-anchor="start" x="579.5" y="-151.3" font-family="Times,serif" font-size="14.00">situation_id :integer</text>
</g>
<!-- UniversalAnswer&#45;&gt;Question -->
<g id="edge2" class="edge"><title>UniversalAnswer&#45;&gt;Question</title>
<path fill="none" stroke="#bc06e2" d="M554.914,-279.311C562.34,-271.909 569.868,-264.407 577.198,-257.101"/>
<polygon fill="#bc06e2" stroke="#bc06e2" points="554.828,-279.396 544.569,-283.268 551.287,-282.925 547.745,-286.455 547.745,-286.455 547.745,-286.455 551.287,-282.925 550.922,-289.642 554.828,-279.396 554.828,-279.396"/>
<polygon fill="#bc06e2" stroke="#bc06e2" points="577.369,-256.931 587.628,-253.059 580.91,-253.401 584.452,-249.872 584.452,-249.872 584.452,-249.872 580.91,-253.401 581.275,-246.685 577.369,-256.931 577.369,-256.931"/>
</g>
<!-- User -->
<g id="node4" class="node"><title>User</title>
<path fill="none" stroke="black" d="M881.5,-467C881.5,-467 994.5,-467 994.5,-467 1000.5,-467 1006.5,-473 1006.5,-479 1006.5,-479 1006.5,-546 1006.5,-546 1006.5,-552 1000.5,-558 994.5,-558 994.5,-558 881.5,-558 881.5,-558 875.5,-558 869.5,-552 869.5,-546 869.5,-546 869.5,-479 869.5,-479 869.5,-473 875.5,-467 881.5,-467"/>
<text text-anchor="middle" x="938" y="-542.8" font-family="Times,serif" font-size="14.00">User</text>
<polyline fill="none" stroke="black" points="869.5,-535 1006.5,-535 "/>
<text text-anchor="start" x="877.5" y="-519.8" font-family="Times,serif" font-size="14.00">id :INTEGER</text>
<text text-anchor="start" x="877.5" y="-504.8" font-family="Times,serif" font-size="14.00">created_at :datetime</text>
<text text-anchor="start" x="877.5" y="-489.8" font-family="Times,serif" font-size="14.00">updated_at :datetime</text>
<text text-anchor="start" x="877.5" y="-474.8" font-family="Times,serif" font-size="14.00">nationality_id :integer</text>
</g>
<!-- Answer -->
<g id="node6" class="node"><title>Answer</title>
<path fill="none" stroke="black" d="M732.5,-286.5C732.5,-286.5 839.5,-286.5 839.5,-286.5 845.5,-286.5 851.5,-292.5 851.5,-298.5 851.5,-298.5 851.5,-395.5 851.5,-395.5 851.5,-401.5 845.5,-407.5 839.5,-407.5 839.5,-407.5 732.5,-407.5 732.5,-407.5 726.5,-407.5 720.5,-401.5 720.5,-395.5 720.5,-395.5 720.5,-298.5 720.5,-298.5 720.5,-292.5 726.5,-286.5 732.5,-286.5"/>
<text text-anchor="middle" x="786" y="-392.3" font-family="Times,serif" font-size="14.00">Answer</text>
<polyline fill="none" stroke="black" points="720.5,-384.5 851.5,-384.5 "/>
<text text-anchor="start" x="728.5" y="-369.3" font-family="Times,serif" font-size="14.00">id :INTEGER</text>
<text text-anchor="start" x="728.5" y="-354.3" font-family="Times,serif" font-size="14.00">created_at :datetime</text>
<text text-anchor="start" x="728.5" y="-339.3" font-family="Times,serif" font-size="14.00">updated_at :datetime</text>
<text text-anchor="start" x="728.5" y="-324.3" font-family="Times,serif" font-size="14.00">text :varchar(255)</text>
<text text-anchor="start" x="728.5" y="-309.3" font-family="Times,serif" font-size="14.00">question_id :integer</text>
<text text-anchor="start" x="728.5" y="-294.3" font-family="Times,serif" font-size="14.00">type :varchar(255)</text>
</g>
<!-- Answer&#45;&gt;QuestionHasAnswer -->
<g id="edge3" class="edge"><title>Answer&#45;&gt;QuestionHasAnswer</title>
<path fill="none" stroke="#2cd021" d="M767.483,-278.578C754.752,-237.788 735.686,-185.604 711,-143 705.408,-133.35 698.748,-123.71 691.748,-114.533"/>
<ellipse fill="none" stroke="#2cd021" cx="768.689" cy="-282.494" rx="4.00001" ry="4.00001"/>
<polygon fill="#2cd021" stroke="#2cd021" points="691.698,-114.469 689.069,-103.823 688.613,-110.534 685.528,-106.599 685.528,-106.599 685.528,-106.599 688.613,-110.534 681.986,-109.376 691.698,-114.469 691.698,-114.469"/>
</g>
<!-- Answer&#45;&gt;Question -->
<g id="edge4" class="edge"><title>Answer&#45;&gt;Question</title>
<path fill="none" stroke="#2f2387" d="M719.086,-279.311C711.66,-271.909 704.132,-264.407 696.802,-257.101"/>
<polygon fill="#2f2387" stroke="#2f2387" points="719.172,-279.396 723.078,-289.642 722.713,-282.925 726.255,-286.455 726.255,-286.455 726.255,-286.455 722.713,-282.925 729.431,-283.268 719.172,-279.396 719.172,-279.396"/>
<polygon fill="#2f2387" stroke="#2f2387" points="696.631,-256.931 692.725,-246.685 693.09,-253.401 689.548,-249.872 689.548,-249.872 689.548,-249.872 693.09,-253.401 686.372,-253.059 696.631,-256.931 696.631,-256.931"/>
</g>
<!-- Survey -->
<g id="node7" class="node"><title>Survey</title>
<path fill="none" stroke="black" d="M732.5,-459.5C732.5,-459.5 839.5,-459.5 839.5,-459.5 845.5,-459.5 851.5,-465.5 851.5,-471.5 851.5,-471.5 851.5,-553.5 851.5,-553.5 851.5,-559.5 845.5,-565.5 839.5,-565.5 839.5,-565.5 732.5,-565.5 732.5,-565.5 726.5,-565.5 720.5,-559.5 720.5,-553.5 720.5,-553.5 720.5,-471.5 720.5,-471.5 720.5,-465.5 726.5,-459.5 732.5,-459.5"/>
<text text-anchor="middle" x="786" y="-550.3" font-family="Times,serif" font-size="14.00">Survey</text>
<polyline fill="none" stroke="black" points="720.5,-542.5 851.5,-542.5 "/>
<text text-anchor="start" x="728.5" y="-527.3" font-family="Times,serif" font-size="14.00">id :INTEGER</text>
<text text-anchor="start" x="728.5" y="-512.3" font-family="Times,serif" font-size="14.00">created_at :datetime</text>
<text text-anchor="start" x="728.5" y="-497.3" font-family="Times,serif" font-size="14.00">updated_at :datetime</text>
<text text-anchor="start" x="728.5" y="-482.3" font-family="Times,serif" font-size="14.00">title :varchar(255)</text>
<text text-anchor="start" x="728.5" y="-467.3" font-family="Times,serif" font-size="14.00">text :varchar(255)</text>
</g>
<!-- Situation -->
<g id="node8" class="node"><title>Situation</title>
<path fill="none" stroke="black" d="M583.5,-294C583.5,-294 690.5,-294 690.5,-294 696.5,-294 702.5,-300 702.5,-306 702.5,-306 702.5,-388 702.5,-388 702.5,-394 696.5,-400 690.5,-400 690.5,-400 583.5,-400 583.5,-400 577.5,-400 571.5,-394 571.5,-388 571.5,-388 571.5,-306 571.5,-306 571.5,-300 577.5,-294 583.5,-294"/>
<text text-anchor="middle" x="637" y="-384.8" font-family="Times,serif" font-size="14.00">Situation</text>
<polyline fill="none" stroke="black" points="571.5,-377 702.5,-377 "/>
<text text-anchor="start" x="579.5" y="-361.8" font-family="Times,serif" font-size="14.00">id :INTEGER</text>
<text text-anchor="start" x="579.5" y="-346.8" font-family="Times,serif" font-size="14.00">created_at :datetime</text>
<text text-anchor="start" x="579.5" y="-331.8" font-family="Times,serif" font-size="14.00">updated_at :datetime</text>
<text text-anchor="start" x="579.5" y="-316.8" font-family="Times,serif" font-size="14.00">text :varchar(255)</text>
<text text-anchor="start" x="579.5" y="-301.8" font-family="Times,serif" font-size="14.00">title :varchar(255)</text>
</g>
<!-- Survey&#45;&gt;Situation -->
<g id="edge6" class="edge"><title>Survey&#45;&gt;Situation</title>
<path fill="none" stroke="#5c879a" d="M731.484,-451.679C718.403,-437.325 704.434,-421.996 691.359,-407.65"/>
<polygon fill="#5c879a" stroke="#5c879a" points="731.71,-451.927 735.12,-462.349 735.078,-455.622 738.446,-459.318 738.446,-459.318 738.446,-459.318 735.078,-455.622 741.772,-456.287 731.71,-451.927 731.71,-451.927"/>
<polygon fill="#5c879a" stroke="#5c879a" points="691.349,-407.638 687.94,-397.216 687.981,-403.943 684.613,-400.247 684.613,-400.247 684.613,-400.247 687.981,-403.943 681.287,-403.278 691.349,-407.638 691.349,-407.638"/>
</g>
<!-- SurveyHasSituation -->
<g id="node9" class="node"><title>SurveyHasSituation</title>
<path fill="none" stroke="black" d="M881.5,-294C881.5,-294 988.5,-294 988.5,-294 994.5,-294 1000.5,-300 1000.5,-306 1000.5,-306 1000.5,-388 1000.5,-388 1000.5,-394 994.5,-400 988.5,-400 988.5,-400 881.5,-400 881.5,-400 875.5,-400 869.5,-394 869.5,-388 869.5,-388 869.5,-306 869.5,-306 869.5,-300 875.5,-294 881.5,-294"/>
<text text-anchor="middle" x="935" y="-384.8" font-family="Times,serif" font-size="14.00">SurveyHasSituation</text>
<polyline fill="none" stroke="black" points="869.5,-377 1000.5,-377 "/>
<text text-anchor="start" x="877.5" y="-361.8" font-family="Times,serif" font-size="14.00">id :INTEGER</text>
<text text-anchor="start" x="877.5" y="-346.8" font-family="Times,serif" font-size="14.00">survey_id :integer</text>
<text text-anchor="start" x="877.5" y="-331.8" font-family="Times,serif" font-size="14.00">situation_id :integer</text>
<text text-anchor="start" x="877.5" y="-316.8" font-family="Times,serif" font-size="14.00">created_at :datetime</text>
<text text-anchor="start" x="877.5" y="-301.8" font-family="Times,serif" font-size="14.00">updated_at :datetime</text>
</g>
<!-- Survey&#45;&gt;SurveyHasSituation -->
<g id="edge5" class="edge"><title>Survey&#45;&gt;SurveyHasSituation</title>
<path fill="none" stroke="#8779ec" d="M839.273,-453.043C852.648,-438.366 867.019,-422.596 880.456,-407.852"/>
<ellipse fill="none" stroke="#8779ec" cx="836.249" cy="-456.362" rx="4.00002" ry="4.00002"/>
<polygon fill="#8779ec" stroke="#8779ec" points="880.651,-407.638 890.713,-403.278 884.019,-403.943 887.387,-400.247 887.387,-400.247 887.387,-400.247 884.019,-403.943 884.06,-397.216 880.651,-407.638 880.651,-407.638"/>
</g>
<!-- Situation&#45;&gt;Question -->
<g id="edge7" class="edge"><title>Situation&#45;&gt;Question</title>
<path fill="none" stroke="#f2a8bc" d="M637,-285.503C637,-277.046 637,-268.343 637,-259.853"/>
<ellipse fill="none" stroke="#f2a8bc" cx="637" cy="-289.644" rx="4" ry="4"/>
<polygon fill="#f2a8bc" stroke="#f2a8bc" points="637,-259.633 641.5,-249.633 637,-254.633 637,-249.633 637,-249.633 637,-249.633 637,-254.633 632.5,-249.633 637,-259.633 637,-259.633"/>
</g>
<!-- Continent -->
<g id="node10" class="node"><title>Continent</title>
<path fill="none" stroke="black" d="M1036.5,-467C1036.5,-467 1143.5,-467 1143.5,-467 1149.5,-467 1155.5,-473 1155.5,-479 1155.5,-479 1155.5,-546 1155.5,-546 1155.5,-552 1149.5,-558 1143.5,-558 1143.5,-558 1036.5,-558 1036.5,-558 1030.5,-558 1024.5,-552 1024.5,-546 1024.5,-546 1024.5,-479 1024.5,-479 1024.5,-473 1030.5,-467 1036.5,-467"/>
<text text-anchor="middle" x="1090" y="-542.8" font-family="Times,serif" font-size="14.00">Continent</text>
<polyline fill="none" stroke="black" points="1024.5,-535 1155.5,-535 "/>
<text text-anchor="start" x="1032.5" y="-519.8" font-family="Times,serif" font-size="14.00">id :INTEGER</text>
<text text-anchor="start" x="1032.5" y="-504.8" font-family="Times,serif" font-size="14.00">name :varchar(255)</text>
<text text-anchor="start" x="1032.5" y="-489.8" font-family="Times,serif" font-size="14.00">created_at :datetime</text>
<text text-anchor="start" x="1032.5" y="-474.8" font-family="Times,serif" font-size="14.00">updated_at :datetime</text>
</g>
<!-- Nationality -->
<g id="node11" class="node"><title>Nationality</title>
<path fill="none" stroke="black" d="M1185.5,-459.5C1185.5,-459.5 1292.5,-459.5 1292.5,-459.5 1298.5,-459.5 1304.5,-465.5 1304.5,-471.5 1304.5,-471.5 1304.5,-553.5 1304.5,-553.5 1304.5,-559.5 1298.5,-565.5 1292.5,-565.5 1292.5,-565.5 1185.5,-565.5 1185.5,-565.5 1179.5,-565.5 1173.5,-559.5 1173.5,-553.5 1173.5,-553.5 1173.5,-471.5 1173.5,-471.5 1173.5,-465.5 1179.5,-459.5 1185.5,-459.5"/>
<text text-anchor="middle" x="1239" y="-550.3" font-family="Times,serif" font-size="14.00">Nationality</text>
<polyline fill="none" stroke="black" points="1173.5,-542.5 1304.5,-542.5 "/>
<text text-anchor="start" x="1181.5" y="-527.3" font-family="Times,serif" font-size="14.00">id :INTEGER</text>
<text text-anchor="start" x="1181.5" y="-512.3" font-family="Times,serif" font-size="14.00">created_at :datetime</text>
<text text-anchor="start" x="1181.5" y="-497.3" font-family="Times,serif" font-size="14.00">updated_at :datetime</text>
<text text-anchor="start" x="1181.5" y="-482.3" font-family="Times,serif" font-size="14.00">name :varchar(255)</text>
<text text-anchor="start" x="1181.5" y="-467.3" font-family="Times,serif" font-size="14.00">continent_id :integer</text>
</g>
<!-- UserAnswersSurvey -->
<g id="node12" class="node"><title>UserAnswersSurvey</title>
<path fill="none" stroke="black" d="M244,-444.5C244,-444.5 370,-444.5 370,-444.5 376,-444.5 382,-450.5 382,-456.5 382,-456.5 382,-568.5 382,-568.5 382,-574.5 376,-580.5 370,-580.5 370,-580.5 244,-580.5 244,-580.5 238,-580.5 232,-574.5 232,-568.5 232,-568.5 232,-456.5 232,-456.5 232,-450.5 238,-444.5 244,-444.5"/>
<text text-anchor="middle" x="307" y="-565.3" font-family="Times,serif" font-size="14.00">UserAnswersSurvey</text>
<polyline fill="none" stroke="black" points="232,-557.5 382,-557.5 "/>
<text text-anchor="start" x="240" y="-542.3" font-family="Times,serif" font-size="14.00">id :INTEGER</text>
<text text-anchor="start" x="240" y="-527.3" font-family="Times,serif" font-size="14.00">user_id :integer</text>
<text text-anchor="start" x="240" y="-512.3" font-family="Times,serif" font-size="14.00">survey_id :integer</text>
<text text-anchor="start" x="240" y="-497.3" font-family="Times,serif" font-size="14.00">created_at :datetime</text>
<text text-anchor="start" x="240" y="-482.3" font-family="Times,serif" font-size="14.00">updated_at :datetime</text>
<text text-anchor="start" x="240" y="-467.3" font-family="Times,serif" font-size="14.00">session_id :varchar(255)</text>
<text text-anchor="start" x="240" y="-452.3" font-family="Times,serif" font-size="14.00">completed :boolean</text>
</g>
<!-- UserAnswersSurvey&#45;&gt;AnsweredQuestion -->
<g id="edge8" class="edge"><title>UserAnswersSurvey&#45;&gt;AnsweredQuestion</title>
<path fill="none" stroke="#0eda75" d="M307,-435.81C307,-429.918 307,-423.984 307,-418.13"/>
<ellipse fill="none" stroke="#0eda75" cx="307" cy="-440.054" rx="4" ry="4"/>
<polygon fill="#0eda75" stroke="#0eda75" points="307,-417.709 311.5,-407.709 307,-412.709 307,-407.709 307,-407.709 307,-407.709 307,-412.709 302.5,-407.709 307,-417.709 307,-417.709"/>
</g>
<!-- Question&#45;&gt;QuestionHasAnswer -->
<g id="edge9" class="edge"><title>Question&#45;&gt;QuestionHasAnswer</title>
<path fill="none" stroke="#69feb9" d="M637,-135.194C637,-129.154 637,-123.013 637,-116.952"/>
<ellipse fill="none" stroke="#69feb9" cx="637" cy="-139.397" rx="4" ry="4"/>
<polygon fill="#69feb9" stroke="#69feb9" points="637,-116.859 641.5,-106.859 637,-111.859 637,-106.859 637,-106.859 637,-106.859 637,-111.859 632.5,-106.859 637,-116.859 637,-116.859"/>
</g>
<!-- UserGuessesNationality -->
<g id="node14" class="node"><title>UserGuessesNationality</title>
<path fill="none" stroke="black" d="M1335,-452C1335,-452 1505,-452 1505,-452 1511,-452 1517,-458 1517,-464 1517,-464 1517,-561 1517,-561 1517,-567 1511,-573 1505,-573 1505,-573 1335,-573 1335,-573 1329,-573 1323,-567 1323,-561 1323,-561 1323,-464 1323,-464 1323,-458 1329,-452 1335,-452"/>
<text text-anchor="middle" x="1420" y="-557.8" font-family="Times,serif" font-size="14.00">UserGuessesNationality</text>
<polyline fill="none" stroke="black" points="1323,-550 1517,-550 "/>
<text text-anchor="start" x="1331" y="-534.8" font-family="Times,serif" font-size="14.00">id :INTEGER</text>
<text text-anchor="start" x="1331" y="-519.8" font-family="Times,serif" font-size="14.00">user_id :integer</text>
<text text-anchor="start" x="1331" y="-504.8" font-family="Times,serif" font-size="14.00">user_answers_survey_id :integer</text>
<text text-anchor="start" x="1331" y="-489.8" font-family="Times,serif" font-size="14.00">nationality_id :integer</text>
<text text-anchor="start" x="1331" y="-474.8" font-family="Times,serif" font-size="14.00">created_at :datetime</text>
<text text-anchor="start" x="1331" y="-459.8" font-family="Times,serif" font-size="14.00">updated_at :datetime</text>
</g>
</g>
</svg>
