<?xml version="1.0" encoding="UTF-8" standalone="no"?>
<!DOCTYPE svg PUBLIC "-//W3C//DTD SVG 1.1//EN"
 "http://www.w3.org/Graphics/SVG/1.1/DTD/svg11.dtd">
<!-- Generated by graphviz version 2.38.0 (20140413.2041)
 -->
<!-- Title: models_diagram Pages: 1 -->
<svg width="1480pt" height="302pt"
 viewBox="0.00 0.00 1479.54 302.00" xmlns="http://www.w3.org/2000/svg" xmlns:xlink="http://www.w3.org/1999/xlink">
<g id="graph0" class="graph" transform="scale(1 1) rotate(0) translate(4 298)">
<title>models_diagram</title>
<polygon fill="none" stroke="none" points="-4,4 -4,-298 1475.54,-298 1475.54,4 -4,4"/>
<!-- _diagram_info -->
<g id="node1" class="node"><title>_diagram_info</title>
<text text-anchor="start" x="8" y="-279.6" font-family="Times,serif" font-size="13.00">Models diagram</text>
<text text-anchor="start" x="8" y="-265.6" font-family="Times,serif" font-size="13.00">Date: Nov 22 2015 &#45; 13:22</text>
<text text-anchor="start" x="8" y="-251.6" font-family="Times,serif" font-size="13.00">Migration version: 20151109102306</text>
<text text-anchor="start" x="8" y="-237.6" font-family="Times,serif" font-size="13.00">Generated by RailRoady 1.4.1</text>
<text text-anchor="start" x="8" y="-223.6" font-family="Times,serif" font-size="13.00">http://railroady.prestonlee.com</text>
</g>
<!-- AnsweredQuestion -->
<g id="node2" class="node"><title>AnsweredQuestion</title>
<ellipse fill="none" stroke="black" cx="315" cy="-162" rx="77.9862" ry="18"/>
<text text-anchor="middle" x="315" y="-158.3" font-family="Times,serif" font-size="14.00">AnsweredQuestion</text>
</g>
<!-- UniversalAnswer -->
<g id="node3" class="node"><title>UniversalAnswer</title>
<ellipse fill="none" stroke="black" cx="483" cy="-162" rx="72.2875" ry="18"/>
<text text-anchor="middle" x="483" y="-158.3" font-family="Times,serif" font-size="14.00">UniversalAnswer</text>
</g>
<!-- QuestionHasAnswer -->
<g id="node5" class="node"><title>QuestionHasAnswer</title>
<ellipse fill="none" stroke="black" cx="615" cy="-18" rx="83.3857" ry="18"/>
<text text-anchor="middle" x="615" y="-14.3" font-family="Times,serif" font-size="14.00">QuestionHasAnswer</text>
</g>
<!-- UniversalAnswer&#45;&gt;QuestionHasAnswer -->
<g id="edge1" class="edge"><title>UniversalAnswer&#45;&gt;QuestionHasAnswer</title>
<path fill="none" stroke="#fde1ec" d="M503.746,-137.853C520.008,-119.795 543.275,-94.1452 564,-72 572.773,-62.6255 582.522,-52.439 591.127,-43.5245"/>
<ellipse fill="none" stroke="#fde1ec" cx="500.765" cy="-141.168" rx="4.00002" ry="4.00002"/>
<polygon fill="#fde1ec" stroke="#fde1ec" points="591.387,-43.2562 601.575,-39.1999 594.864,-39.6633 598.341,-36.0704 598.341,-36.0704 598.341,-36.0704 594.864,-39.6633 595.108,-32.9408 591.387,-43.2562 591.387,-43.2562"/>
</g>
<!-- Question -->
<g id="node14" class="node"><title>Question</title>
<ellipse fill="none" stroke="black" cx="615" cy="-90" rx="42.4939" ry="18"/>
<text text-anchor="middle" x="615" y="-86.3" font-family="Times,serif" font-size="14.00">Question</text>
</g>
<!-- UniversalAnswer&#45;&gt;Question -->
<g id="edge2" class="edge"><title>UniversalAnswer&#45;&gt;Question</title>
<path fill="none" stroke="#2c1d79" d="M521.329,-140.674C539.955,-130.797 562.17,-119.016 580.291,-109.406"/>
<polygon fill="#2c1d79" stroke="#2c1d79" points="521.13,-140.78 510.187,-141.489 516.712,-143.122 512.295,-145.465 512.295,-145.465 512.295,-145.465 516.712,-143.122 514.403,-149.44 521.13,-140.78 521.13,-140.78"/>
<polygon fill="#2c1d79" stroke="#2c1d79" points="580.519,-109.286 591.462,-108.576 584.936,-106.943 589.353,-104.6 589.353,-104.6 589.353,-104.6 584.936,-106.943 587.245,-100.625 580.519,-109.286 580.519,-109.286"/>
</g>
<!-- User -->
<g id="node4" class="node"><title>User</title>
<ellipse fill="none" stroke="black" cx="814" cy="-255" rx="27.0966" ry="18"/>
<text text-anchor="middle" x="814" y="-251.3" font-family="Times,serif" font-size="14.00">User</text>
</g>
<!-- Answer -->
<g id="node6" class="node"><title>Answer</title>
<ellipse fill="none" stroke="black" cx="714" cy="-162" rx="38.1938" ry="18"/>
<text text-anchor="middle" x="714" y="-158.3" font-family="Times,serif" font-size="14.00">Answer</text>
</g>
<!-- Answer&#45;&gt;QuestionHasAnswer -->
<g id="edge3" class="edge"><title>Answer&#45;&gt;QuestionHasAnswer</title>
<path fill="none" stroke="#b1dcdc" d="M703.102,-136.671C694.296,-118.162 680.94,-92.474 666,-72 658.548,-61.7879 649.233,-51.548 640.609,-42.8291"/>
<ellipse fill="none" stroke="#b1dcdc" cx="704.894" cy="-140.504" rx="4.00002" ry="4.00002"/>
<polygon fill="#b1dcdc" stroke="#b1dcdc" points="640.395,-42.6179 636.433,-32.3928 636.835,-39.1076 633.274,-35.5974 633.274,-35.5974 633.274,-35.5974 636.835,-39.1076 630.115,-38.802 640.395,-42.6179 640.395,-42.6179"/>
</g>
<!-- Answer&#45;&gt;Question -->
<g id="edge4" class="edge"><title>Answer&#45;&gt;Question</title>
<path fill="none" stroke="#72b21c" d="M685.12,-140.58C672.293,-131.51 657.218,-120.851 644.338,-111.744"/>
<polygon fill="#72b21c" stroke="#72b21c" points="685.322,-140.723 690.889,-150.17 689.405,-143.609 693.487,-146.496 693.487,-146.496 693.487,-146.496 689.405,-143.609 696.085,-142.822 685.322,-140.723 685.322,-140.723"/>
<polygon fill="#72b21c" stroke="#72b21c" points="643.992,-111.5 638.425,-102.052 639.91,-108.613 635.827,-105.726 635.827,-105.726 635.827,-105.726 639.91,-108.613 633.229,-109.401 643.992,-111.5 643.992,-111.5"/>
</g>
<!-- Survey -->
<g id="node7" class="node"><title>Survey</title>
<ellipse fill="none" stroke="black" cx="733" cy="-255" rx="35.9954" ry="18"/>
<text text-anchor="middle" x="733" y="-251.3" font-family="Times,serif" font-size="14.00">Survey</text>
</g>
<!-- Situation -->
<g id="node8" class="node"><title>Situation</title>
<ellipse fill="none" stroke="black" cx="615" cy="-162" rx="42.4939" ry="18"/>
<text text-anchor="middle" x="615" y="-158.3" font-family="Times,serif" font-size="14.00">Situation</text>
</g>
<!-- Survey&#45;&gt;Situation -->
<g id="edge6" class="edge"><title>Survey&#45;&gt;Situation</title>
<path fill="none" stroke="#23cbd9" d="M706.142,-233.287C687.227,-218.701 661.969,-199.222 642.84,-184.47"/>
<polygon fill="#23cbd9" stroke="#23cbd9" points="706.384,-233.474 711.554,-243.144 710.343,-236.527 714.303,-239.581 714.303,-239.581 714.303,-239.581 710.343,-236.527 717.051,-236.017 706.384,-233.474 706.384,-233.474"/>
<polygon fill="#23cbd9" stroke="#23cbd9" points="642.71,-184.369 637.539,-174.699 638.75,-181.316 634.791,-178.263 634.791,-178.263 634.791,-178.263 638.75,-181.316 632.043,-181.826 642.71,-184.369 642.71,-184.369"/>
</g>
<!-- SurveyHasSituation -->
<g id="node9" class="node"><title>SurveyHasSituation</title>
<ellipse fill="none" stroke="black" cx="852" cy="-162" rx="81.4863" ry="18"/>
<text text-anchor="middle" x="852" y="-158.3" font-family="Times,serif" font-size="14.00">SurveyHasSituation</text>
</g>
<!-- Survey&#45;&gt;SurveyHasSituation -->
<g id="edge5" class="edge"><title>Survey&#45;&gt;SurveyHasSituation</title>
<path fill="none" stroke="#386c53" d="M756.762,-233.327C763.534,-227.603 770.98,-221.464 778,-216 791.503,-205.49 806.822,-194.389 820.006,-185.077"/>
<ellipse fill="none" stroke="#386c53" cx="753.301" cy="-236.278" rx="4.00002" ry="4.00002"/>
<polygon fill="#386c53" stroke="#386c53" points="820.135,-184.986 830.905,-182.923 824.228,-182.113 828.32,-179.24 828.32,-179.24 828.32,-179.24 824.228,-182.113 825.734,-175.557 820.135,-184.986 820.135,-184.986"/>
</g>
<!-- Situation&#45;&gt;Question -->
<g id="edge7" class="edge"><title>Situation&#45;&gt;Question</title>
<path fill="none" stroke="#754ee1" d="M615,-135.64C615,-130.063 615,-124.132 615,-118.476"/>
<ellipse fill="none" stroke="#754ee1" cx="615" cy="-139.697" rx="4" ry="4"/>
<polygon fill="#754ee1" stroke="#754ee1" points="615,-118.104 619.5,-108.104 615,-113.104 615,-108.104 615,-108.104 615,-108.104 615,-113.104 610.5,-108.104 615,-118.104 615,-118.104"/>
</g>
<!-- Continent -->
<g id="node10" class="node"><title>Continent</title>
<ellipse fill="none" stroke="black" cx="905" cy="-255" rx="45.4919" ry="18"/>
<text text-anchor="middle" x="905" y="-251.3" font-family="Times,serif" font-size="14.00">Continent</text>
</g>
<!-- Nationality -->
<g id="node11" class="node"><title>Nationality</title>
<ellipse fill="none" stroke="black" cx="1019" cy="-255" rx="50.0912" ry="18"/>
<text text-anchor="middle" x="1019" y="-251.3" font-family="Times,serif" font-size="14.00">Nationality</text>
</g>
<!-- UserAnswersSurvey -->
<g id="node12" class="node"><title>UserAnswersSurvey</title>
<ellipse fill="none" stroke="black" cx="315" cy="-255" rx="83.3857" ry="18"/>
<text text-anchor="middle" x="315" y="-251.3" font-family="Times,serif" font-size="14.00">UserAnswersSurvey</text>
</g>
<!-- UserAnswersSurvey&#45;&gt;AnsweredQuestion -->
<g id="edge8" class="edge"><title>UserAnswersSurvey&#45;&gt;AnsweredQuestion</title>
<path fill="none" stroke="#5aa486" d="M315,-228.729C315,-216.725 315,-202.362 315,-190.129"/>
<ellipse fill="none" stroke="#5aa486" cx="315" cy="-232.884" rx="4" ry="4"/>
<polygon fill="#5aa486" stroke="#5aa486" points="315,-190.04 319.5,-180.04 315,-185.04 315,-180.04 315,-180.04 315,-180.04 315,-185.04 310.5,-180.04 315,-190.04 315,-190.04"/>
</g>
<!-- SituationHasQuestion -->
<g id="node13" class="node"><title>SituationHasQuestion</title>
<ellipse fill="none" stroke="black" cx="1175" cy="-255" rx="87.9851" ry="18"/>
<text text-anchor="middle" x="1175" y="-251.3" font-family="Times,serif" font-size="14.00">SituationHasQuestion</text>
</g>
<!-- Question&#45;&gt;QuestionHasAnswer -->
<g id="edge9" class="edge"><title>Question&#45;&gt;QuestionHasAnswer</title>
<path fill="none" stroke="#d2c99c" d="M615,-63.6398C615,-58.0629 615,-52.1319 615,-46.4761"/>
<ellipse fill="none" stroke="#d2c99c" cx="615" cy="-67.6966" rx="4" ry="4"/>
<polygon fill="#d2c99c" stroke="#d2c99c" points="615,-46.1043 619.5,-36.1043 615,-41.1043 615,-36.1043 615,-36.1043 615,-36.1043 615,-41.1043 610.5,-36.1044 615,-46.1043 615,-46.1043"/>
</g>
<!-- UserGuessesNationality -->
<g id="node15" class="node"><title>UserGuessesNationality</title>
<ellipse fill="none" stroke="black" cx="1376" cy="-255" rx="95.5831" ry="18"/>
<text text-anchor="middle" x="1376" y="-251.3" font-family="Times,serif" font-size="14.00">UserGuessesNationality</text>
</g>
</g>
</svg>
