<?xml version="1.0" encoding="UTF-8" standalone="no"?>
<!DOCTYPE svg PUBLIC "-//W3C//DTD SVG 1.1//EN"
 "http://www.w3.org/Graphics/SVG/1.1/DTD/svg11.dtd">
<!-- Generated by graphviz version 2.38.0 (20140413.2041)
 -->
<!-- Title: models_diagram Pages: 1 -->
<svg width="854pt" height="332pt"
 viewBox="0.00 0.00 853.73 332.00" xmlns="http://www.w3.org/2000/svg" xmlns:xlink="http://www.w3.org/1999/xlink">
<g id="graph0" class="graph" transform="scale(1 1) rotate(0) translate(4 328)">
<title>models_diagram</title>
<polygon fill="none" stroke="none" points="-4,4 -4,-328 849.734,-328 849.734,4 -4,4"/>
<!-- AnsweredQuestion -->
<g id="node1" class="node"><title>AnsweredQuestion</title>
<ellipse fill="none" stroke="black" cx="262.193" cy="-18" rx="77.9862" ry="18"/>
<text text-anchor="middle" x="262.193" y="-14.3" font-family="Times,serif" font-size="14.00">AnsweredQuestion</text>
</g>
<!-- UniversalAnswer -->
<g id="node2" class="node"><title>UniversalAnswer</title>
<ellipse fill="none" stroke="black" cx="202.193" cy="-162" rx="72.2875" ry="18"/>
<text text-anchor="middle" x="202.193" y="-158.3" font-family="Times,serif" font-size="14.00">UniversalAnswer</text>
</g>
<!-- UniversalAnswer&#45;&gt;AnsweredQuestion -->
<g id="edge3" class="edge"><title>UniversalAnswer&#45;&gt;AnsweredQuestion</title>
<path fill="none" stroke="#a0b7f6" d="M223.771,-137.806C230.91,-129.033 238.277,-118.596 243.193,-108 252.308,-88.3513 257.109,-64.2234 259.603,-46.0487"/>
<ellipse fill="none" stroke="#a0b7f6" cx="220.982" cy="-141.109" rx="4.00002" ry="4.00002"/>
<polygon fill="#a0b7f6" stroke="#a0b7f6" points="259.604,-46.0404 265.286,-36.6616 260.212,-41.0774 260.82,-36.1145 260.82,-36.1145 260.82,-36.1145 260.212,-41.0774 256.353,-35.5674 259.604,-46.0404 259.604,-46.0404"/>
</g>
<!-- QuestionHasAnswer -->
<g id="node4" class="node"><title>QuestionHasAnswer</title>
<ellipse fill="none" stroke="black" cx="83.1926" cy="-18" rx="83.3857" ry="18"/>
<text text-anchor="middle" x="83.1926" y="-14.3" font-family="Times,serif" font-size="14.00">QuestionHasAnswer</text>
</g>
<!-- UniversalAnswer&#45;&gt;QuestionHasAnswer -->
<g id="edge1" class="edge"><title>UniversalAnswer&#45;&gt;QuestionHasAnswer</title>
<path fill="none" stroke="#10e06c" d="M174.273,-139.541C163.325,-130.436 151.051,-119.32 141.193,-108 124.096,-88.3688 108.219,-63.3285 97.4156,-44.8123"/>
<ellipse fill="none" stroke="#10e06c" cx="177.439" cy="-142.126" rx="4.00002" ry="4.00002"/>
<polygon fill="#10e06c" stroke="#10e06c" points="97.3632,-44.7207 96.2974,-33.8068 94.8779,-40.3821 92.3926,-36.0435 92.3926,-36.0435 92.3926,-36.0435 94.8779,-40.3821 88.4879,-38.2803 97.3632,-44.7207 97.3632,-44.7207"/>
</g>
<!-- Question -->
<g id="node12" class="node"><title>Question</title>
<ellipse fill="none" stroke="black" cx="192.193" cy="-90" rx="42.4939" ry="18"/>
<text text-anchor="middle" x="192.193" y="-86.3" font-family="Times,serif" font-size="14.00">Question</text>
</g>
<!-- UniversalAnswer&#45;&gt;Question -->
<g id="edge2" class="edge"><title>UniversalAnswer&#45;&gt;Question</title>
<path fill="none" stroke="#074150" d="M198.288,-133.665C197.557,-128.552 196.794,-123.21 196.065,-118.104"/>
<polygon fill="#074150" stroke="#074150" points="198.306,-133.797 195.266,-144.333 199.014,-138.747 199.721,-143.697 199.721,-143.697 199.721,-143.697 199.014,-138.747 204.175,-143.06 198.306,-133.797 198.306,-133.797"/>
<polygon fill="#074150" stroke="#074150" points="196.05,-118.004 199.091,-107.468 195.343,-113.054 194.636,-108.104 194.636,-108.104 194.636,-108.104 195.343,-113.054 190.181,-108.741 196.05,-118.004 196.05,-118.004"/>
</g>
<!-- User -->
<g id="node3" class="node"><title>User</title>
<ellipse fill="none" stroke="black" cx="695.193" cy="-162" rx="27.0966" ry="18"/>
<text text-anchor="middle" x="695.193" y="-158.3" font-family="Times,serif" font-size="14.00">User</text>
</g>
<!-- UserAnswersSurvey -->
<g id="node11" class="node"><title>UserAnswersSurvey</title>
<ellipse fill="none" stroke="black" cx="553.193" cy="-90" rx="83.3857" ry="18"/>
<text text-anchor="middle" x="553.193" y="-86.3" font-family="Times,serif" font-size="14.00">UserAnswersSurvey</text>
</g>
<!-- User&#45;&gt;UserAnswersSurvey -->
<g id="edge4" class="edge"><title>User&#45;&gt;UserAnswersSurvey</title>
<path fill="none" stroke="#c9e647" d="M666.648,-146.929C645.922,-136.712 617.567,-122.734 594.389,-111.308"/>
<ellipse fill="none" stroke="#c9e647" cx="670.346" cy="-148.752" rx="4.00002" ry="4.00002"/>
<polygon fill="#c9e647" stroke="#c9e647" points="594.107,-111.169 587.127,-102.711 589.622,-108.958 585.138,-106.748 585.138,-106.748 585.138,-106.748 589.622,-108.958 583.148,-110.784 594.107,-111.169 594.107,-111.169"/>
</g>
<!-- UserGuessesNationality -->
<g id="node13" class="node"><title>UserGuessesNationality</title>
<ellipse fill="none" stroke="black" cx="750.193" cy="-90" rx="95.5831" ry="18"/>
<text text-anchor="middle" x="750.193" y="-86.3" font-family="Times,serif" font-size="14.00">UserGuessesNationality</text>
</g>
<!-- User&#45;&gt;UserGuessesNationality -->
<g id="edge5" class="edge"><title>User&#45;&gt;UserGuessesNationality</title>
<path fill="none" stroke="#fe6430" d="M712.095,-139.488C717.907,-132.091 724.465,-123.744 730.481,-116.087"/>
<ellipse fill="none" stroke="#fe6430" cx="709.598" cy="-142.666" rx="4.00002" ry="4.00002"/>
<polygon fill="#fe6430" stroke="#fe6430" points="730.558,-115.99 740.274,-110.907 733.647,-112.058 736.736,-108.127 736.736,-108.127 736.736,-108.127 733.647,-112.058 733.197,-105.347 730.558,-115.99 730.558,-115.99"/>
</g>
<!-- Answer -->
<g id="node5" class="node"><title>Answer</title>
<ellipse fill="none" stroke="black" cx="74.1926" cy="-162" rx="38.1938" ry="18"/>
<text text-anchor="middle" x="74.1926" y="-158.3" font-family="Times,serif" font-size="14.00">Answer</text>
</g>
<!-- Answer&#45;&gt;AnsweredQuestion -->
<g id="edge8" class="edge"><title>Answer&#45;&gt;AnsweredQuestion</title>
<path fill="none" stroke="#acae70" d="M87.4721,-137.059C99.3837,-117.406 118.461,-89.9789 141.193,-72 160.622,-56.633 185.197,-44.7982 207.117,-36.2506"/>
<ellipse fill="none" stroke="#acae70" cx="85.3007" cy="-140.732" rx="4.00002" ry="4.00002"/>
<polygon fill="#acae70" stroke="#acae70" points="207.286,-36.187 218.23,-36.8839 211.967,-34.4291 216.648,-32.6712 216.648,-32.6712 216.648,-32.6712 211.967,-34.4291 215.066,-28.4584 207.286,-36.187 207.286,-36.187"/>
</g>
<!-- Answer&#45;&gt;QuestionHasAnswer -->
<g id="edge6" class="edge"><title>Answer&#45;&gt;QuestionHasAnswer</title>
<path fill="none" stroke="#3a57cf" d="M70.842,-135.681C69.0186,-117.825 67.6092,-93.3774 70.1926,-72 71.2316,-63.4026 73.186,-54.1878 75.2696,-45.8926"/>
<ellipse fill="none" stroke="#3a57cf" cx="71.3119" cy="-139.9" rx="4.00001" ry="4.00001"/>
<polygon fill="#3a57cf" stroke="#3a57cf" points="75.3337,-45.6528 82.2659,-37.156 76.6263,-40.8228 77.9189,-35.9927 77.9189,-35.9927 77.9189,-35.9927 76.6263,-40.8228 73.5718,-34.8294 75.3337,-45.6528 75.3337,-45.6528"/>
</g>
<!-- Answer&#45;&gt;Question -->
<g id="edge7" class="edge"><title>Answer&#45;&gt;Question</title>
<path fill="none" stroke="#e66096" d="M105.57,-142.386C122.175,-132.536 142.549,-120.45 159.366,-110.474"/>
<polygon fill="#e66096" stroke="#e66096" points="105.545,-142.401 94.6483,-143.633 101.244,-144.952 96.9442,-147.503 96.9442,-147.503 96.9442,-147.503 101.244,-144.952 99.2401,-151.374 105.545,-142.401 105.545,-142.401"/>
<polygon fill="#e66096" stroke="#e66096" points="159.695,-110.278 170.592,-109.046 163.996,-107.727 168.296,-105.176 168.296,-105.176 168.296,-105.176 163.996,-107.727 166,-101.306 159.695,-110.278 159.695,-110.278"/>
</g>
<!-- Survey -->
<g id="node6" class="node"><title>Survey</title>
<ellipse fill="none" stroke="black" cx="427.193" cy="-234" rx="35.9954" ry="18"/>
<text text-anchor="middle" x="427.193" y="-230.3" font-family="Times,serif" font-size="14.00">Survey</text>
</g>
<!-- Situation -->
<g id="node7" class="node"><title>Situation</title>
<ellipse fill="none" stroke="black" cx="357.193" cy="-162" rx="42.4939" ry="18"/>
<text text-anchor="middle" x="357.193" y="-158.3" font-family="Times,serif" font-size="14.00">Situation</text>
</g>
<!-- Survey&#45;&gt;Situation -->
<g id="edge10" class="edge"><title>Survey&#45;&gt;Situation</title>
<path fill="none" stroke="#48cdcf" d="M404.549,-210.357C396.871,-202.679 388.284,-194.091 380.552,-186.359"/>
<polygon fill="#48cdcf" stroke="#48cdcf" points="404.586,-210.394 408.475,-220.647 408.122,-213.929 411.657,-217.465 411.657,-217.465 411.657,-217.465 408.122,-213.929 414.839,-214.283 404.586,-210.394 404.586,-210.394"/>
<polygon fill="#48cdcf" stroke="#48cdcf" points="380.241,-186.048 376.352,-175.795 376.705,-182.513 373.17,-178.977 373.17,-178.977 373.17,-178.977 376.705,-182.513 369.988,-182.159 380.241,-186.048 380.241,-186.048"/>
</g>
<!-- SurveyHasSituation -->
<g id="node8" class="node"><title>SurveyHasSituation</title>
<ellipse fill="none" stroke="black" cx="371.193" cy="-90" rx="81.4863" ry="18"/>
<text text-anchor="middle" x="371.193" y="-86.3" font-family="Times,serif" font-size="14.00">SurveyHasSituation</text>
</g>
<!-- Survey&#45;&gt;SurveyHasSituation -->
<g id="edge9" class="edge"><title>Survey&#45;&gt;SurveyHasSituation</title>
<path fill="none" stroke="#e2ca5a" d="M424.506,-207.601C421.928,-189.334 417.066,-164.423 408.193,-144 404.011,-134.375 397.947,-124.71 391.934,-116.318"/>
<ellipse fill="none" stroke="#e2ca5a" cx="425.08" cy="-212.02" rx="4.00001" ry="4.00001"/>
<polygon fill="#e2ca5a" stroke="#e2ca5a" points="391.764,-116.091 389.368,-105.39 388.765,-112.09 385.767,-108.089 385.767,-108.089 385.767,-108.089 388.765,-112.09 382.166,-110.787 391.764,-116.091 391.764,-116.091"/>
</g>
<!-- Survey&#45;&gt;UserAnswersSurvey -->
<g id="edge11" class="edge"><title>Survey&#45;&gt;UserAnswersSurvey</title>
<path fill="none" stroke="#5ff37d" d="M446.533,-211.204C469.416,-185.415 507.419,-142.586 531.344,-115.623"/>
<ellipse fill="none" stroke="#5ff37d" cx="443.813" cy="-214.269" rx="4.00002" ry="4.00002"/>
<polygon fill="#5ff37d" stroke="#5ff37d" points="531.353,-115.613 541.356,-111.12 534.672,-111.873 537.99,-108.133 537.99,-108.133 537.99,-108.133 534.672,-111.873 534.624,-105.146 531.353,-115.613 531.353,-115.613"/>
</g>
<!-- Situation&#45;&gt;SurveyHasSituation -->
<g id="edge13" class="edge"><title>Situation&#45;&gt;SurveyHasSituation</title>
<path fill="none" stroke="#501965" d="M362.195,-135.987C363.343,-130.249 364.568,-124.121 365.734,-118.293"/>
<ellipse fill="none" stroke="#501965" cx="361.366" cy="-140.133" rx="4.00001" ry="4.00001"/>
<polygon fill="#501965" stroke="#501965" points="365.776,-118.081 372.15,-109.158 366.757,-113.178 367.738,-108.275 367.738,-108.275 367.738,-108.275 366.757,-113.178 363.325,-107.393 365.776,-118.081 365.776,-118.081"/>
</g>
<!-- Situation&#45;&gt;Question -->
<g id="edge12" class="edge"><title>Situation&#45;&gt;Question</title>
<path fill="none" stroke="#99fa15" d="M320.722,-145.527C293.913,-134.154 257.568,-118.735 230.367,-107.195"/>
<ellipse fill="none" stroke="#99fa15" cx="324.769" cy="-147.245" rx="4.00001" ry="4.00001"/>
<polygon fill="#99fa15" stroke="#99fa15" points="230.364,-107.194 222.915,-99.1456 225.761,-105.241 221.158,-103.288 221.158,-103.288 221.158,-103.288 225.761,-105.241 219.4,-107.431 230.364,-107.194 230.364,-107.194"/>
</g>
<!-- Continent -->
<g id="node9" class="node"><title>Continent</title>
<ellipse fill="none" stroke="black" cx="722.193" cy="-306" rx="45.4919" ry="18"/>
<text text-anchor="middle" x="722.193" y="-302.3" font-family="Times,serif" font-size="14.00">Continent</text>
</g>
<!-- Nationality -->
<g id="node10" class="node"><title>Nationality</title>
<ellipse fill="none" stroke="black" cx="722.193" cy="-234" rx="50.0912" ry="18"/>
<text text-anchor="middle" x="722.193" y="-230.3" font-family="Times,serif" font-size="14.00">Nationality</text>
</g>
<!-- Continent&#45;&gt;Nationality -->
<g id="edge14" class="edge"><title>Continent&#45;&gt;Nationality</title>
<path fill="none" stroke="#7098ba" d="M722.193,-279.64C722.193,-274.063 722.193,-268.132 722.193,-262.476"/>
<ellipse fill="none" stroke="#7098ba" cx="722.193" cy="-283.697" rx="4" ry="4"/>
<polygon fill="#7098ba" stroke="#7098ba" points="722.193,-262.104 726.693,-252.104 722.193,-257.104 722.193,-252.104 722.193,-252.104 722.193,-252.104 722.193,-257.104 717.693,-252.104 722.193,-262.104 722.193,-262.104"/>
</g>
<!-- Nationality&#45;&gt;User -->
<g id="edge15" class="edge"><title>Nationality&#45;&gt;User</title>
<path fill="none" stroke="#555c49" d="M712.716,-208.431C710.318,-202.214 707.734,-195.514 705.306,-189.22"/>
<ellipse fill="none" stroke="#555c49" cx="714.217" cy="-212.323" rx="4.00001" ry="4.00001"/>
<polygon fill="#555c49" stroke="#555c49" points="705.267,-189.119 705.867,-178.17 703.468,-184.454 701.668,-179.789 701.668,-179.789 701.668,-179.789 703.468,-184.454 697.47,-181.408 705.267,-189.119 705.267,-189.119"/>
</g>
<!-- Nationality&#45;&gt;UserGuessesNationality -->
<g id="edge16" class="edge"><title>Nationality&#45;&gt;UserGuessesNationality</title>
<path fill="none" stroke="#aa36a4" d="M727.136,-207.929C732.106,-182.725 739.743,-143.994 744.85,-118.095"/>
<ellipse fill="none" stroke="#aa36a4" cx="726.344" cy="-211.947" rx="4.00001" ry="4.00001"/>
<polygon fill="#aa36a4" stroke="#aa36a4" points="744.869,-118 751.218,-109.06 745.836,-113.095 746.803,-108.189 746.803,-108.189 746.803,-108.189 745.836,-113.095 742.388,-107.319 744.869,-118 744.869,-118"/>
</g>
<!-- UserAnswersSurvey&#45;&gt;AnsweredQuestion -->
<g id="edge17" class="edge"><title>UserAnswersSurvey&#45;&gt;AnsweredQuestion</title>
<path fill="none" stroke="#c3253e" d="M491.889,-74.2534C442.599,-62.3968 373.655,-45.8123 324.184,-33.912"/>
<ellipse fill="none" stroke="#c3253e" cx="495.93" cy="-75.2254" rx="4.00001" ry="4.00001"/>
<polygon fill="#c3253e" stroke="#c3253e" points="323.972,-33.861 315.302,-27.147 319.11,-32.6916 314.249,-31.5222 314.249,-31.5222 314.249,-31.5222 319.11,-32.6916 313.197,-35.8974 323.972,-33.861 323.972,-33.861"/>
</g>
<!-- Question&#45;&gt;AnsweredQuestion -->
<g id="edge19" class="edge"><title>Question&#45;&gt;AnsweredQuestion</title>
<path fill="none" stroke="#6fb0f3" d="M213.825,-67.3677C221.448,-59.7442 230.068,-51.125 237.896,-43.2964"/>
<ellipse fill="none" stroke="#6fb0f3" cx="210.905" cy="-70.2875" rx="4.00002" ry="4.00002"/>
<polygon fill="#6fb0f3" stroke="#6fb0f3" points="238.324,-42.8684 248.577,-38.9793 241.86,-39.3329 245.395,-35.7973 245.395,-35.7973 245.395,-35.7973 241.86,-39.3329 242.213,-32.6154 238.324,-42.8684 238.324,-42.8684"/>
</g>
<!-- Question&#45;&gt;QuestionHasAnswer -->
<g id="edge18" class="edge"><title>Question&#45;&gt;QuestionHasAnswer</title>
<path fill="none" stroke="#9fa034" d="M162.883,-70.1775C148.835,-61.1554 131.923,-50.2946 117.3,-40.9037"/>
<ellipse fill="none" stroke="#9fa034" cx="166.506" cy="-72.504" rx="4.00002" ry="4.00002"/>
<polygon fill="#9fa034" stroke="#9fa034" points="116.951,-40.6797 110.968,-31.4895 112.744,-37.9778 108.537,-35.276 108.537,-35.276 108.537,-35.276 112.744,-37.9778 106.105,-39.0624 116.951,-40.6797 116.951,-40.6797"/>
</g>
</g>
</svg>
